<svg id="epEK0OkrB4c1" xmlns="http://www.w3.org/2000/svg" xmlns:xlink="http://www.w3.org/1999/xlink" viewBox="0 0 900 870" shape-rendering="geometricPrecision" text-rendering="geometricPrecision" style="background-color:transparent">
<style><![CDATA[
#epEK0OkrB4c3_ts {animation: epEK0OkrB4c3_ts__ts 8000ms linear infinite alternate-reverse forwards}@keyframes epEK0OkrB4c3_ts__ts { 0% {transform: translate(450px,436.021851px) scale(1,1)} 50% {transform: translate(450px,436.021851px) scale(1,1.063918)} 100% {transform: translate(450px,436.021851px) scale(1,1)}} #epEK0OkrB4c4_ts {animation: epEK0OkrB4c4_ts__ts 8000ms linear infinite alternate-reverse forwards}@keyframes epEK0OkrB4c4_ts__ts { 0% {transform: translate(450px,436.021847px) scale(1,1)} 25% {transform: translate(450px,436.021847px) scale(1,1.089787)} 50% {transform: translate(450px,436.021847px) scale(1,1)} 75% {transform: translate(450px,436.021847px) scale(1,1.10421)} 100% {transform: translate(450px,436.021847px) scale(1,1)}} #epEK0OkrB4c5_ts {animation: epEK0OkrB4c5_ts__ts 8000ms linear infinite alternate-reverse forwards}@keyframes epEK0OkrB4c5_ts__ts { 0% {transform: translate(450px,434.999999px) scale(1,1)} 25% {transform: translate(450px,434.999999px) scale(1,1.14618)} 50% {transform: translate(450px,434.999999px) scale(1,1)} 75% {transform: translate(450px,434.999999px) scale(1,0.870994)} 100% {transform: translate(450px,434.999999px) scale(1,1)}} #epEK0OkrB4c6_ts {animation: epEK0OkrB4c6_ts__ts 8000ms linear infinite alternate-reverse forwards}@keyframes epEK0OkrB4c6_ts__ts { 0% {transform: translate(450px,439.183749px) scale(1,1)} 33.75% {transform: translate(450px,439.183749px) scale(1,0.756248)} 68.75% {transform: translate(450px,439.183749px) scale(1,0.897054)} 100% {transform: translate(450px,439.183749px) scale(1,1)}} #epEK0OkrB4c8_ts {animation: epEK0OkrB4c8_ts__ts 8000ms linear infinite alternate-reverse forwards}@keyframes epEK0OkrB4c8_ts__ts { 0% {transform: translate(450px,436.021851px) scale(1,1)} 50% {transform: translate(450px,436.021851px) scale(1,1.063918)} 100% {transform: translate(450px,436.021851px) scale(1,1)}} #epEK0OkrB4c9_ts {animation: epEK0OkrB4c9_ts__ts 8000ms linear infinite alternate-reverse forwards}@keyframes epEK0OkrB4c9_ts__ts { 0% {transform: translate(450px,436.021847px) scale(1,1)} 25% {transform: translate(450px,436.021847px) scale(1,1.089787)} 50% {transform: translate(450px,436.021847px) scale(1,1)} 75% {transform: translate(450px,436.021847px) scale(1,1.10421)} 100% {transform: translate(450px,436.021847px) scale(1,1)}} #epEK0OkrB4c10_ts {animation: epEK0OkrB4c10_ts__ts 8000ms linear infinite alternate-reverse forwards}@keyframes epEK0OkrB4c10_ts__ts { 0% {transform: translate(450px,434.999999px) scale(1,1)} 25% {transform: translate(450px,434.999999px) scale(1,1.14618)} 50% {transform: translate(450px,434.999999px) scale(1,1)} 75% {transform: translate(450px,434.999999px) scale(1,0.870994)} 100% {transform: translate(450px,434.999999px) scale(1,1)}} #epEK0OkrB4c11_ts {animation: epEK0OkrB4c11_ts__ts 8000ms linear infinite alternate-reverse forwards}@keyframes epEK0OkrB4c11_ts__ts { 0% {transform: translate(450px,436.021847px) scale(1,1)} 33.75% {transform: translate(450px,436.021847px) scale(1,0.756248)} 68.75% {transform: translate(450px,436.021847px) scale(1,0.897054)} 100% {transform: translate(450px,436.021847px) scale(1,1)}}
]]></style>
<g><g id="epEK0OkrB4c3_ts" transform="translate(450,436.021851) scale(1,1)"><path d="M0,318l30-1.8c30-1.9,90-5.5,150-11s120-12.9,180-15.9s120-1.6,180-11.8s120-31.8,180-47.2C780,215,840,206,870,201.5l30-4.5v404h-30c-30,0-90,0-150,0s-120,0-180,0-120,0-180,0-120,0-180,0-120,0-150,0h-30Z" transform="translate(-450,-601)" fill="#df51ff"/></g><g id="epEK0OkrB4c4_ts" transform="translate(450,436.021847) scale(1,1)"><path d="M0,343l30-21c30-21,90-63,150-73.7c60-10.6,120,10,180,33.5s120,49.9,180,61.2s120,7.7,180,11.8C780,359,840,371,870,377l30,6v218h-30c-30,0-90,0-150,0s-120,0-180,0-120,0-180,0-120,0-180,0-120,0-150,0h-30Z" transform="translate(-450,-600.999996)" fill="#bb36dc"/></g><g id="epEK0OkrB4c5_ts" transform="translate(450,434.999999) scale(1,1)"><path d="M0,278l30,11.5C60,301,120,324,180,347.8c60,23.9,120,48.5,180,57.9C420,415,480,409,540,389s120-54,180-57.7c60-3.6,120,23,150,36.4L900,381v220h-30c-30,0-90,0-150,0s-120,0-180,0-120,0-180,0-120,0-180,0-120,0-150,0h-30Z" transform="translate(-450,-600.999999)" fill="#9718ba"/></g><g id="epEK0OkrB4c6_ts" transform="translate(450,439.183749) scale(1,1)"><path d="M0,393l30-3c30-3,90-9,150-7.2c60,1.9,120,11.5,180,23.4C420,418,480,432,540,443.5s120,20.5,180,20.7c60,.1,120-8.5,150-12.9l30-4.3v154h-30c-30,0-90,0-150,0s-120,0-180,0-120,0-180,0-120,0-180,0-120,0-150,0h-30Z" transform="translate(-450,-600.999996)" fill="#730097"/></g></g><g transform="matrix(-1 0 0-1 900 859.846964)"><g id="epEK0OkrB4c8_ts" transform="translate(450,436.021851) scale(1,1)"><path d="M0,318l30-1.8c30-1.9,90-5.5,150-11s120-12.9,180-15.9s120-1.6,180-11.8s120-31.8,180-47.2C780,215,840,206,870,201.5l30-4.5v404h-30c-30,0-90,0-150,0s-120,0-180,0-120,0-180,0-120,0-180,0-120,0-150,0h-30Z" transform="translate(-450,-601)" fill="#df51ff"/></g><g id="epEK0OkrB4c9_ts" transform="translate(450,436.021847) scale(1,1)"><path d="M0,343l30-21c30-21,90-63,150-73.7c60-10.6,120,10,180,33.5s120,49.9,180,61.2s120,7.7,180,11.8C780,359,840,371,870,377l30,6v218h-30c-30,0-90,0-150,0s-120,0-180,0-120,0-180,0-120,0-180,0-120,0-150,0h-30Z" transform="translate(-450,-600.999996)" fill="#bb36dc"/></g><g id="epEK0OkrB4c10_ts" transform="translate(450,434.999999) scale(1,1)"><path d="M0,278l30,11.5C60,301,120,324,180,347.8c60,23.9,120,48.5,180,57.9C420,415,480,409,540,389s120-54,180-57.7c60-3.6,120,23,150,36.4L900,381v220h-30c-30,0-90,0-150,0s-120,0-180,0-120,0-180,0-120,0-180,0-120,0-150,0h-30Z" transform="translate(-450,-600.999999)" fill="#9718ba"/></g><g id="epEK0OkrB4c11_ts" transform="translate(450,436.021847) scale(1,1)"><path d="M0,393l30-3c30-3,90-9,150-7.2c60,1.9,120,11.5,180,23.4C420,418,480,432,540,443.5s120,20.5,180,20.7c60,.1,120-8.5,150-12.9l30-4.3v154h-30c-30,0-90,0-150,0s-120,0-180,0-120,0-180,0-120,0-180,0-120,0-150,0h-30Z" transform="translate(-450,-600.999996)" fill="#730097"/></g></g><rect width="900" height="52.996022" rx="0" ry="0" transform="translate(0 395.847837)" fill="#730097" stroke-width="0"/></svg>
