<svg id="en5aM6pXixk1" xmlns="http://www.w3.org/2000/svg" xmlns:xlink="http://www.w3.org/1999/xlink" viewBox="0 0 900 400" shape-rendering="geometricPrecision" text-rendering="geometricPrecision" style="background-color:transparent">
<style><![CDATA[
#en5aM6pXixk3_ts {animation: en5aM6pXixk3_ts__ts 4000ms linear infinite normal forwards}@keyframes en5aM6pXixk3_ts__ts { 0% {transform: translate(450px,200px) scale(1,1)} 32.5% {transform: translate(450px,200px) scale(1,0.824102)} 70% {transform: translate(450px,200px) scale(1,1.029826)} 100% {transform: translate(450px,200px) scale(1,1)}} #en5aM6pXixk4_ts {animation: en5aM6pXixk4_ts__ts 4000ms linear infinite normal forwards}@keyframes en5aM6pXixk4_ts__ts { 0% {transform: translate(450px,200px) scale(1,1)} 50% {transform: translate(450px,200px) scale(1,1.262892)} 100% {transform: translate(450px,200px) scale(1,1)}} #en5aM6pXixk6_ts {animation: en5aM6pXixk6_ts__ts 4000ms linear infinite normal forwards}@keyframes en5aM6pXixk6_ts__ts { 0% {transform: translate(450px,200px) scale(1,1)} 32.5% {transform: translate(450px,200px) scale(1,0.824102)} 70% {transform: translate(450px,200px) scale(1,1.029826)} 100% {transform: translate(450px,200px) scale(1,1)}} #en5aM6pXixk7_ts {animation: en5aM6pXixk7_ts__ts 4000ms linear infinite normal forwards}@keyframes en5aM6pXixk7_ts__ts { 0% {transform: translate(450px,200px) scale(1,1)} 50% {transform: translate(450px,200px) scale(1,1.262892)} 100% {transform: translate(450px,200px) scale(1,1)}}
]]></style>
<g><g id="en5aM6pXixk3_ts" transform="translate(450,200) scale(1,1)"><path d="M0,517l30-9.8c30-9.9,90-29.5,150-32.2s120,11.7,180,21.8c60,10.2,120,16.2,180,1.4c60-14.9,120-50.5,180-65.7s120-9.8,150-7.2l30,2.7v173h-30c-30,0-90,0-150,0s-120,0-180,0-120,0-180,0-120,0-180,0-120,0-150,0h-30Z" transform="translate(-450,-600.999999)" fill="#4d0073"/></g><g id="en5aM6pXixk4_ts" transform="translate(450,200) scale(1,1)"><path d="M0,559l30-5c30-5,90-15,150-18.3c60-3.4,120,0,180-7.4C420,521,480,503,540,493s120-12,180-9.8c60,2.1,120,8.5,150,11.6l30,3.2v103h-30c-30,0-90,0-150,0s-120,0-180,0-120,0-180,0-120,0-180,0-120,0-150,0h-30Z" transform="translate(-450,-601)"/></g></g><g transform="matrix(-1 0 0-1 900 395.566525)"><g id="en5aM6pXixk6_ts" transform="translate(450,200) scale(1,1)"><path d="M0,517l30-9.8c30-9.9,90-29.5,150-32.2s120,11.7,180,21.8c60,10.2,120,16.2,180,1.4c60-14.9,120-50.5,180-65.7s120-9.8,150-7.2l30,2.7v173h-30c-30,0-90,0-150,0s-120,0-180,0-120,0-180,0-120,0-180,0-120,0-150,0h-30Z" transform="translate(-450,-600.999999)" fill="#4d0073"/></g><g id="en5aM6pXixk7_ts" transform="translate(450,200) scale(1,1)"><path d="M0,559l30-5c30-5,90-15,150-18.3c60-3.4,120,0,180-7.4C420,521,480,503,540,493s120-12,180-9.8c60,2.1,120,8.5,150,11.6l30,3.2v103h-30c-30,0-90,0-150,0s-120,0-180,0-120,0-180,0-120,0-180,0-120,0-150,0h-30Z" transform="translate(-450,-601)"/></g></g><rect width="911.787719" height="42.451268" rx="0" ry="0" transform="matrix(.987072 0 0 1-.000125 178.774366)" stroke-width="0"/></svg>
